<svg width="203" height="315" viewBox="0 0 203 315" fill="none" xmlns="http://www.w3.org/2000/svg">
<ellipse cx="103.881" cy="216.5" rx="99" ry="98.5" fill="#FF6FD7"/>
<circle cx="103.881" cy="217" r="87" fill="#181818"/>
<g filter="url(#filter0_d_2_53)">
<ellipse cx="89.8815" cy="84.5" rx="85" ry="84.5" fill="#FF6FD7"/>
</g>
<circle cx="89.8815" cy="85" r="69" fill="#181818"/>
<rect x="5" y="88" width="11" height="129" fill="#FF6FD7"/>
<path d="M41.92 151.886C45.7039 146.671 52.8672 145.251 58.3543 148.629L78.759 161.191C81.6759 162.987 80.7486 167.448 77.3577 167.932C77.0416 167.977 76.721 167.981 76.4039 167.943L64.3815 166.5L52.5175 166.5C47.1789 166.5 41.9257 167.84 37.239 170.396C31.1656 173.709 26.3335 178.906 23.4708 185.204L21.7858 188.911C20.851 190.967 20.0756 193.093 19.4665 195.268L17.0196 204.007C16.928 204.334 16.8815 204.672 16.8815 205.012C16.8815 208.258 13.0213 209.954 10.6309 207.758L8.40144 205.71C6.5102 203.972 6.22116 201.093 7.72925 199.014L41.92 151.886Z" fill="#FF6FD7"/>
<rect x="9.88147" y="123" width="15" height="55" fill="#FF6FD7"/>
<rect x="16.8815" y="139" width="30" height="24" fill="#FF6FD7"/>
<defs>
<filter id="filter0_d_2_53" x="0.88147" y="0" width="178" height="177" filterUnits="userSpaceOnUse" color-interpolation-filters="sRGB">
<feFlood flood-opacity="0" result="BackgroundImageFix"/>
<feColorMatrix in="SourceAlpha" type="matrix" values="0 0 0 0 0 0 0 0 0 0 0 0 0 0 0 0 0 0 127 0" result="hardAlpha"/>
<feOffset dy="4"/>
<feGaussianBlur stdDeviation="2"/>
<feComposite in2="hardAlpha" operator="out"/>
<feColorMatrix type="matrix" values="0 0 0 0 0 0 0 0 0 0 0 0 0 0 0 0 0 0 0.25 0"/>
<feBlend mode="normal" in2="BackgroundImageFix" result="effect1_dropShadow_2_53"/>
<feBlend mode="normal" in="SourceGraphic" in2="effect1_dropShadow_2_53" result="shape"/>
</filter>
</defs>
</svg>
